<svg version="1.1" viewBox="0.0 0.0 703.4671916010499 264.4750656167979" fill="none" stroke="none" stroke-linecap="square" stroke-miterlimit="10" xmlns:xlink="http://www.w3.org/1999/xlink" xmlns="http://www.w3.org/2000/svg"><clipPath id="p.0"><path d="m0 0l703.46716 0l0 264.47507l-703.46716 0l0 -264.47507z" clip-rule="nonzero"/></clipPath><g clip-path="url(#p.0)"><path fill="#000000" fill-opacity="0.0" d="m0 0l703.46716 0l0 264.47507l-703.46716 0z" fill-rule="evenodd"/><path fill="#92d050" d="m90.617096 34.97009c17.571922 0 29.972366 1.1492157 37.201324 3.4476547c7.228958 2.2613716 12.789688 6.4875298 16.682205 12.678478c3.892517 6.153885 5.8387756 13.290161 5.8387756 21.408836c0 8.56353 -2.0945435 15.681274 -6.2836304 21.353226c-4.1520233 5.6719513 -10.342972 9.731285 -18.57286 12.178009c-6.2280273 1.8906479 -16.515388 2.8359756 -30.862083 2.8359756l-52.8826 0l0 -73.902176zm7.673813 102.76239c15.570061 0 27.488571 1.3716583 35.75554 4.1149445c8.304031 2.7062378 14.79155 7.4328613 19.46257 14.179886c4.6710205 6.7099457 7.006531 14.624725 7.006531 23.744339c0 7.785034 -1.6126099 14.661804 -4.837845 20.630325c-3.2252197 5.9314423 -7.340164 10.454193 -12.344833 13.568207c-5.004654 3.1139984 -11.232681 5.3383026 -18.684074 6.672882c-4.226158 0.7785034 -11.56633 1.1677551 -22.020508 1.1677551l-60.89006 0l0 -84.07834zm-88.91617 -131.62262l0 244.56117l93.25355 0c15.570053 0 28.711922 -1.3531189 39.42562 -4.0593414c10.750748 -2.7433014 19.684998 -6.784088 26.802734 -12.122406c7.117752 -5.3383026 13.086273 -12.919449 17.905579 -22.743408c4.856369 -9.861038 7.284561 -20.51912 7.284561 -31.974228c0 -14.235489 -3.985199 -26.580322 -11.955582 -37.0345c-7.933319 -10.454178 -19.295761 -17.849968 -34.08731 -22.18734c11.455109 -5.6719513 20.018646 -13.123337 25.690598 -22.354156c5.6719513 -9.23082 8.507919 -19.073326 8.507919 -29.527504c0 -11.232689 -3.2066803 -21.98344 -9.620071 -32.252274c-6.376297 -10.305897 -15.21788 -17.924107 -26.524704 -22.854622c-11.26976 -4.967593 -26.246674 -7.451386 -44.930748 -7.451386z" fill-rule="evenodd"/><path stroke="#000000" stroke-width="1.0" stroke-linejoin="round" stroke-linecap="butt" d="m90.617096 34.97009c17.571922 0 29.972366 1.1492157 37.201324 3.4476547c7.228958 2.2613716 12.789688 6.4875298 16.682205 12.678478c3.892517 6.153885 5.8387756 13.290161 5.8387756 21.408836c0 8.56353 -2.0945435 15.681274 -6.2836304 21.353226c-4.1520233 5.6719513 -10.342972 9.731285 -18.57286 12.178009c-6.2280273 1.8906479 -16.515388 2.8359756 -30.862083 2.8359756l-52.8826 0l0 -73.902176zm7.673813 102.76239c15.570061 0 27.488571 1.3716583 35.75554 4.1149445c8.304031 2.7062378 14.79155 7.4328613 19.46257 14.179886c4.6710205 6.7099457 7.006531 14.624725 7.006531 23.744339c0 7.785034 -1.6126099 14.661804 -4.837845 20.630325c-3.2252197 5.9314423 -7.340164 10.454193 -12.344833 13.568207c-5.004654 3.1139984 -11.232681 5.3383026 -18.684074 6.672882c-4.226158 0.7785034 -11.56633 1.1677551 -22.020508 1.1677551l-60.89006 0l0 -84.07834zm-88.91617 -131.62262l0 244.56117l93.25355 0c15.570053 0 28.711922 -1.3531189 39.42562 -4.0593414c10.750748 -2.7433014 19.684998 -6.784088 26.802734 -12.122406c7.117752 -5.3383026 13.086273 -12.919449 17.905579 -22.743408c4.856369 -9.861038 7.284561 -20.51912 7.284561 -31.974228c0 -14.235489 -3.985199 -26.580322 -11.955582 -37.0345c-7.933319 -10.454178 -19.295761 -17.849968 -34.08731 -22.18734c11.455109 -5.6719513 20.018646 -13.123337 25.690598 -22.354156c5.6719513 -9.23082 8.507919 -19.073326 8.507919 -29.527504c0 -11.232689 -3.2066803 -21.98344 -9.620071 -32.252274c-6.376297 -10.305897 -15.21788 -17.924107 -26.524704 -22.854622c-11.26976 -4.967593 -26.246674 -7.451386 -44.930748 -7.451386z" fill-rule="evenodd"/><path fill="#ff0000" d="m219.34369 6.1098695l0 244.56117l31.195724 0l0 -208.19395l70.73256 208.19395l29.193848 0l71.06622 -204.69069l0 204.69069l31.19574 0l0 -244.56117l-43.54059 0l-58.554535 170.15852c-5.8943787 17.238281 -10.2317505 30.306015 -13.0121155 39.203186c-2.4467468 -8.007462 -6.3392334 -20.07425 -11.677551 -36.200394l-57.887268 -173.16132z" fill-rule="evenodd"/><path stroke="#000000" stroke-width="1.0" stroke-linejoin="round" stroke-linecap="butt" d="m219.34369 6.1098695l0 244.56117l31.195724 0l0 -208.19395l70.73256 208.19395l29.193848 0l71.06622 -204.69069l0 204.69069l31.19574 0l0 -244.56117l-43.54059 0l-58.554535 170.15852c-5.8943787 17.238281 -10.2317505 30.306015 -13.0121155 39.203186c-2.4467468 -8.007462 -6.3392334 -20.07425 -11.677551 -36.200394l-57.887268 -173.16132z" fill-rule="evenodd"/><path fill="#ffc000" d="m593.2669 2.0078804c-21.575623 0 -41.353333 4.930517 -59.33307 14.791558c-17.942627 9.823963 -31.788849 24.226261 -41.538666 43.206917c-9.712769 18.94358 -14.569153 41.149445 -14.569153 66.617615c0 23.355095 4.3003235 45.20878 12.900909 65.56107c8.637695 20.352295 21.204956 35.90381 37.701782 46.65457c16.533936 10.713684 37.97986 16.070526 64.33771 16.070526c25.4682 0 47.006775 -6.969452 64.61578 -20.908356c17.646057 -13.975998 29.861145 -34.254135 36.645264 -60.834457l-32.363525 -8.174286c-4.4485474 20.574722 -12.956482 36.089188 -25.523743 46.543365c-12.567261 10.454178 -27.914917 15.681274 -46.042908 15.681274c-14.902771 0 -28.749023 -3.8368988 -41.538696 -11.510727c-12.789673 -7.673813 -22.224426 -19.258682 -28.304138 -34.754593c-6.0426636 -15.533005 -9.063995 -33.698074 -9.063995 -54.495216c0 -16.12613 2.557953 -31.770332 7.6737976 -46.93261c5.115906 -15.199341 13.976013 -27.303211 26.580322 -36.311604c12.641418 -9.008392 28.359741 -13.512587 47.15503 -13.512587c16.348572 0 29.916748 4.0593357 40.70459 12.178011c10.787842 8.118675 19.0177 21.075188 24.689697 38.869545l31.862976 -7.506996c-6.5616455 -22.576588 -18.183594 -40.092903 -34.865784 -52.54895c-16.68219 -12.456049 -37.256958 -18.684072 -61.724182 -18.684072z" fill-rule="evenodd"/><path stroke="#000000" stroke-width="1.0" stroke-linejoin="round" stroke-linecap="butt" d="m593.2669 2.0078804c-21.575623 0 -41.353333 4.930517 -59.33307 14.791558c-17.942627 9.823963 -31.788849 24.226261 -41.538666 43.206917c-9.712769 18.94358 -14.569153 41.149445 -14.569153 66.617615c0 23.355095 4.3003235 45.20878 12.900909 65.56107c8.637695 20.352295 21.204956 35.90381 37.701782 46.65457c16.533936 10.713684 37.97986 16.070526 64.33771 16.070526c25.4682 0 47.006775 -6.969452 64.61578 -20.908356c17.646057 -13.975998 29.861145 -34.254135 36.645264 -60.834457l-32.363525 -8.174286c-4.4485474 20.574722 -12.956482 36.089188 -25.523743 46.543365c-12.567261 10.454178 -27.914917 15.681274 -46.042908 15.681274c-14.902771 0 -28.749023 -3.8368988 -41.538696 -11.510727c-12.789673 -7.673813 -22.224426 -19.258682 -28.304138 -34.754593c-6.0426636 -15.533005 -9.063995 -33.698074 -9.063995 -54.495216c0 -16.12613 2.557953 -31.770332 7.6737976 -46.93261c5.115906 -15.199341 13.976013 -27.303211 26.580322 -36.311604c12.641418 -9.008392 28.359741 -13.512587 47.15503 -13.512587c16.348572 0 29.916748 4.0593357 40.70459 12.178011c10.787842 8.118675 19.0177 21.075188 24.689697 38.869545l31.862976 -7.506996c-6.5616455 -22.576588 -18.183594 -40.092903 -34.865784 -52.54895c-16.68219 -12.456049 -37.256958 -18.684072 -61.724182 -18.684072z" fill-rule="evenodd"/></g></svg>